<!DOCTYPE svg PUBLIC "-//W3C//DTD SVG 1.1//EN" "http://www.w3.org/Graphics/SVG/1.1/DTD/svg11.dtd">
<!-- Uploaded to: SVG Repo, www.svgrepo.com, Transformed by: SVG Repo Mixer Tools -->
<svg fill="#000000" width="80px" height="80px" viewBox="-16 -16 64.00 64.00" xmlns="http://www.w3.org/2000/svg" transform="rotate(0)matrix(1, 0, 0, 1, 0, 0)">
<g id="SVGRepo_bgCarrier" stroke-width="0" transform="translate(0,0), scale(1)">
<rect x="-16" y="-16" width="64.00" height="64.00" rx="32" fill="#FFC107" strokewidth="0"/>
</g>
<g id="SVGRepo_tracerCarrier" stroke-linecap="round" stroke-linejoin="round" stroke="#CCCCCC" stroke-width="0.44800000000000006"/>
<g id="SVGRepo_iconCarrier"> <path d="M26.531 25.599l-5.728-9.599 5.728-9.599 2.803 9.599zM13.864 24.667l-7.197-7.068h11.469l5.728 9.599zM13.864 7.197l10-2.531-5.728 9.599h-11.605c0 0.136 7.333-7.068 7.333-7.068zM28.531 0l-13.061 3.333-2 3.333h-3.871l-9.599 9.333 9.599 9.333h3.871l1.864 3.333 13.068 3.333 3.463-12.667-1.864-3.333 2-3.333z"/> </g>
</svg>